<svg xmlns="http://www.w3.org/2000/svg" version="1.1" xmlns:xlink="http://www.w3.org/1999/xlink" width="2000" height="358" viewBox="0 0 2000 358"><g transform="matrix(1,0,0,1,-1.2121212121212466,-0.18337650910902425)"><svg viewBox="0 0 396 71" data-background-color="#ffffff" preserveAspectRatio="xMidYMid meet" height="358" width="2000" xmlns="http://www.w3.org/2000/svg" xmlns:xlink="http://www.w3.org/1999/xlink"><g id="tight-bounds" transform="matrix(1,0,0,1,0.2400000000000091,0.03636796689033872)"><svg viewBox="0 0 395.52 70.9272640662193" height="70.9272640662193" width="395.52"><g><svg viewBox="0 0 547.5785219523113 98.19540459016395" height="70.9272640662193" width="395.52"><g transform="matrix(1,0,0,1,152.05852195231137,13.571144918032793)"><svg viewBox="0 0 395.52 71.05311475409836" height="71.05311475409836" width="395.52"><g id="textblocktransform"><svg viewBox="0 0 395.52 71.05311475409836" height="71.05311475409836" width="395.52" id="textblock"><g><svg viewBox="0 0 395.52 71.05311475409836" height="71.05311475409836" width="395.52"><g transform="matrix(1,0,0,1,0,0)"><svg width="395.52" viewBox="4.3 -38.8 219.57999999999998 39.449999999999996" height="71.05311475409836" data-palette-color="#000000"><path d="M13.65 0.3L13.65 0.3Q12.6 0.3 11.38 0.25 10.15 0.2 8.93 0.1 7.7 0 6.5-0.15 5.3-0.3 4.3-0.55L4.3-0.55 4.3-34.15Q5.3-34.4 6.5-34.55 7.7-34.7 8.93-34.8 10.15-34.9 11.35-34.95 12.55-35 13.6-35L13.6-35Q16.6-35 19.23-34.55 21.85-34.1 23.78-33.02 25.7-31.95 26.8-30.2 27.9-28.45 27.9-25.9L27.9-25.9Q27.9-23.05 26.55-21.23 25.2-19.4 22.95-18.5L22.95-18.5Q26-17.6 27.8-15.65 29.6-13.7 29.6-10.15L29.6-10.15Q29.6-4.95 25.78-2.33 21.95 0.3 13.65 0.3ZM15.35-16.15L9.1-16.15 9.1-3.95Q9.65-3.9 10.4-3.85L10.4-3.85Q11.05-3.8 11.93-3.78 12.8-3.75 13.95-3.75L13.95-3.75Q16.1-3.75 18.03-4.03 19.95-4.3 21.4-5 22.85-5.7 23.73-6.95 24.6-8.2 24.6-10.1L24.6-10.1Q24.6-11.8 23.95-12.98 23.3-14.15 22.08-14.85 20.85-15.55 19.15-15.85 17.45-16.15 15.35-16.15L15.35-16.15ZM9.1-30.75L9.1-20.05 14.2-20.05Q16-20.05 17.6-20.3 19.2-20.55 20.38-21.2 21.55-21.85 22.23-22.9 22.9-23.95 22.9-25.55L22.9-25.55Q22.9-27.05 22.2-28.08 21.5-29.1 20.28-29.73 19.05-30.35 17.4-30.65 15.75-30.95 13.9-30.95L13.9-30.95Q12.05-30.95 11-30.9 9.95-30.85 9.1-30.75L9.1-30.75ZM59.1-13L59.1-13Q59.1-9.9 58.2-7.4 57.3-4.9 55.67-3.1 54.05-1.3 51.8-0.33 49.55 0.65 46.9 0.65L46.9 0.65Q44.25 0.65 42-0.33 39.75-1.3 38.12-3.1 36.5-4.9 35.6-7.4 34.7-9.9 34.7-13L34.7-13Q34.7-16.05 35.6-18.57 36.5-21.1 38.12-22.9 39.75-24.7 42-25.68 44.25-26.65 46.9-26.65L46.9-26.65Q49.55-26.65 51.8-25.68 54.05-24.7 55.67-22.9 57.3-21.1 58.2-18.57 59.1-16.05 59.1-13ZM54.25-13L54.25-13Q54.25-17.4 52.27-19.98 50.3-22.55 46.9-22.55L46.9-22.55Q43.5-22.55 41.52-19.98 39.55-17.4 39.55-13L39.55-13Q39.55-8.6 41.52-6.03 43.5-3.45 46.9-3.45L46.9-3.45Q50.3-3.45 52.27-6.03 54.25-8.6 54.25-13ZM88.59-13L88.59-13Q88.59-9.9 87.7-7.4 86.8-4.9 85.17-3.1 83.55-1.3 81.3-0.33 79.05 0.65 76.4 0.65L76.4 0.65Q73.75 0.65 71.5-0.33 69.25-1.3 67.62-3.1 66-4.9 65.09-7.4 64.2-9.9 64.2-13L64.2-13Q64.2-16.05 65.09-18.57 66-21.1 67.62-22.9 69.25-24.7 71.5-25.68 73.75-26.65 76.4-26.65L76.4-26.65Q79.05-26.65 81.3-25.68 83.55-24.7 85.17-22.9 86.8-21.1 87.7-18.57 88.59-16.05 88.59-13ZM83.75-13L83.75-13Q83.75-17.4 81.77-19.98 79.8-22.55 76.4-22.55L76.4-22.55Q73-22.55 71.02-19.98 69.05-17.4 69.05-13L69.05-13Q69.05-8.6 71.02-6.03 73-3.45 76.4-3.45L76.4-3.45Q79.8-3.45 81.77-6.03 83.75-8.6 83.75-13ZM104.54-14.3L104.54-14.3Q106.04-13.15 107.72-11.45 109.39-9.75 111.02-7.78 112.64-5.8 114.09-3.78 115.54-1.75 116.54 0L116.54 0 111.09 0Q110.04-1.75 108.67-3.58 107.29-5.4 105.79-7.08 104.29-8.75 102.74-10.15 101.19-11.55 99.79-12.5L99.79-12.5 99.79 0 95.14 0 95.14-38 99.79-38.8 99.79-15.1Q100.99-16.3 102.44-17.75 103.89-19.2 105.29-20.7 106.69-22.2 107.94-23.58 109.19-24.95 110.09-26L110.09-26 115.54-26Q114.39-24.75 113.04-23.25 111.69-21.75 110.24-20.23 108.79-18.7 107.32-17.18 105.84-15.65 104.54-14.3ZM140.49-23.5L140.49-23.5Q138.39-16.8 136.24-11.1 134.09-5.4 131.94 0L131.94 0 127.09 0Q124.44-7.65 122.42-16.15 120.39-24.65 118.64-34.65L118.64-34.65 123.74-34.65Q124.44-30.75 125.19-26.85 125.94-22.95 126.74-19.28 127.54-15.6 128.34-12.25 129.14-8.9 129.99-6.05L129.99-6.05Q131.99-11.3 134.24-17.57 136.49-23.85 138.44-30.55L138.44-30.55 142.64-30.55Q144.59-23.85 146.89-17.57 149.19-11.3 151.19-6.05L151.19-6.05Q151.99-8.85 152.79-12.2 153.59-15.55 154.37-19.23 155.14-22.9 155.89-26.83 156.64-30.75 157.34-34.65L157.34-34.65 162.29-34.65Q160.49-24.65 158.47-16.15 156.44-7.65 153.84 0L153.84 0 148.99 0Q146.79-5.4 144.69-11.1 142.59-16.8 140.49-23.5ZM172.34-26L172.34 0 167.69 0 167.69-26 172.34-26ZM169.99-30.7L169.99-30.7Q168.74-30.7 167.86-31.53 166.99-32.35 166.99-33.75L166.99-33.75Q166.99-35.15 167.86-35.98 168.74-36.8 169.99-36.8L169.99-36.8Q171.24-36.8 172.11-35.98 172.99-35.15 172.99-33.75L172.99-33.75Q172.99-32.35 172.11-31.53 171.24-30.7 169.99-30.7ZM186.39-3.35L186.39-3.35Q189.24-3.35 190.61-4.1 191.99-4.85 191.99-6.5L191.99-6.5Q191.99-8.2 190.64-9.2 189.28-10.2 186.19-11.45L186.19-11.45Q184.69-12.05 183.31-12.68 181.94-13.3 180.94-14.15 179.94-15 179.34-16.2 178.74-17.4 178.74-19.15L178.74-19.15Q178.74-22.6 181.28-24.63 183.84-26.65 188.24-26.65L188.24-26.65Q189.34-26.65 190.44-26.53 191.53-26.4 192.49-26.23 193.44-26.05 194.16-25.85 194.89-25.65 195.28-25.5L195.28-25.5 194.44-21.5Q193.69-21.9 192.09-22.33 190.49-22.75 188.24-22.75L188.24-22.75Q186.28-22.75 184.84-21.98 183.39-21.2 183.39-19.55L183.39-19.55Q183.39-18.7 183.71-18.05 184.03-17.4 184.71-16.88 185.39-16.35 186.39-15.9 187.39-15.45 188.78-14.95L188.78-14.95Q190.64-14.25 192.09-13.58 193.53-12.9 194.56-12 195.59-11.1 196.14-9.83 196.69-8.55 196.69-6.7L196.69-6.7Q196.69-3.1 194.01-1.25 191.34 0.6 186.39 0.6L186.39 0.6Q182.94 0.6 180.99 0.03 179.03-0.55 178.34-0.85L178.34-0.85 179.19-4.85Q179.99-4.55 181.74-3.95 183.49-3.35 186.39-3.35ZM201.18-12.95L201.18-12.95Q201.18-16.4 202.18-18.98 203.18-21.55 204.83-23.25 206.48-24.95 208.63-25.8 210.78-26.65 213.03-26.65L213.03-26.65Q218.28-26.65 221.08-23.38 223.88-20.1 223.88-13.4L223.88-13.4Q223.88-13.1 223.88-12.63 223.88-12.15 223.83-11.75L223.83-11.75 206.03-11.75Q206.33-7.7 208.38-5.6 210.43-3.5 214.78-3.5L214.78-3.5Q217.23-3.5 218.91-3.93 220.58-4.35 221.43-4.75L221.43-4.75 222.08-0.85Q221.23-0.4 219.11 0.1 216.98 0.6 214.28 0.6L214.28 0.6Q210.88 0.6 208.41-0.43 205.93-1.45 204.33-3.25 202.73-5.05 201.96-7.53 201.18-10 201.18-12.95ZM206.13-15.5L219.03-15.5Q219.08-18.65 217.46-20.68 215.83-22.7 212.98-22.7L212.98-22.7Q211.38-22.7 210.16-22.08 208.93-21.45 208.08-20.45 207.23-19.45 206.76-18.15 206.28-16.85 206.13-15.5L206.13-15.5Z" opacity="1" transform="matrix(1,0,0,1,0,0)" fill="#000000" class="wordmark-text-0" data-fill-palette-color="primary" id="text-0"></path></svg></g></svg></g></svg></g></svg></g><g><svg viewBox="0 0 135.28458683362285 98.19540459016395" height="98.19540459016395" width="135.28458683362285"><g><svg xmlns="http://www.w3.org/2000/svg" xmlns:xlink="http://www.w3.org/1999/xlink" version="1.1" x="0" y="0" viewBox="5.499 16.625007433093316 90.94800053959338 66.01399256690668" enable-background="new 0 0 100 100" xml:space="preserve" height="98.19540459016395" width="135.28458683362285" class="icon-icon-0" data-fill-palette-color="accent" id="icon-0"><g fill="#fb3453" data-fill-palette-color="accent"><g fill="#fb3453" data-fill-palette-color="accent"><path fill-rule="evenodd" clip-rule="evenodd" d="M92.818 23.216V72.1S78.911 68.19 68.578 70.177C59.323 71.956 52.512 76.977 51.363 77.864V78.012L51.267 77.937 51.172 78.012V77.864C50.024 76.977 43.213 71.957 33.961 70.177 23.626 68.189 8.357 72.1 8.357 72.1V23.071L5.499 23.5V76.162S22.139 71.88 33.458 74.058C44.589 76.199 51.314 82.639 51.314 82.639S58.039 76.199 69.169 74.058C80.49 71.879 96.447 76.162 96.447 76.162V23.727C96.448 23.727 95.059 23.492 92.818 23.216M33.121 65.229C42.172 66.968 49.167 72.207 49.167 72.207V24.113S42.135 18.868 33.063 17.124C23.88 15.358 11.884 18.847 11.884 18.847V66.941S23.918 63.459 33.121 65.229M89.284 67.117V19.023S78.288 15.533 69.109 17.3C60.037 19.043 52.774 24.287 52.774 24.287V72.382S59.997 67.145 69.05 65.403C78.252 63.636 89.284 67.117 89.284 67.117" fill="#fb3453" data-fill-palette-color="accent"></path></g></g></svg></g></svg></g></svg></g><defs></defs></svg><rect width="395.52" height="70.9272640662193" fill="none" stroke="none" visibility="hidden"></rect></g></svg></g></svg>