<svg xmlns="http://www.w3.org/2000/svg" version="1.1" xmlns:xlink="http://www.w3.org/1999/xlink" xmlns:svgjs="http://svgjs.dev/svgjs" width="128" height="128" viewBox="0 0 128 128"><g transform="matrix(0.8046875,0,0,0.8046875,12.221578124999994,26.2101178305091)"><svg viewBox="0 0 96 70" data-background-color="#ffffff" preserveAspectRatio="xMidYMid meet" height="93" width="128" xmlns="http://www.w3.org/2000/svg" xmlns:xlink="http://www.w3.org/1999/xlink"><g id="tight-bounds" transform="matrix(1,0,0,1,0.25950000000000273,0.3478801794173165)"><svg viewBox="0 0 95.481 69.30423964116537" height="69.30423964116537" width="95.481"><g><svg viewBox="0 0 95.481 69.30423964116537" height="69.30423964116537" width="95.481"><g><svg viewBox="0 0 95.481 69.30423964116537" height="69.30423964116537" width="95.481"><g id="textblocktransform"><svg viewBox="0 0 95.481 69.30423964116537" height="69.30423964116537" width="95.481" id="textblock"><g><svg viewBox="0 0 95.481 69.30423964116537" height="69.30423964116537" width="95.481"><g><svg viewBox="0 0 95.481 69.30423964116537" height="69.30423964116537" width="95.481"><g><svg xmlns="http://www.w3.org/2000/svg" xmlns:xlink="http://www.w3.org/1999/xlink" version="1.1" x="0" y="0" viewBox="5.499 16.625007433093316 90.94800053959338 66.01399256690668" enable-background="new 0 0 100 100" xml:space="preserve" height="69.30423964116537" width="95.481" class="icon-icon-0" data-fill-palette-color="accent" id="icon-0"><g fill="#fb3453" data-fill-palette-color="accent"><g fill="#fb3453" data-fill-palette-color="accent"><path fill-rule="evenodd" clip-rule="evenodd" d="M92.818 23.216V72.1S78.911 68.19 68.578 70.177C59.323 71.956 52.512 76.977 51.363 77.864V78.012L51.267 77.937 51.172 78.012V77.864C50.024 76.977 43.213 71.957 33.961 70.177 23.626 68.189 8.357 72.1 8.357 72.1V23.071L5.499 23.5V76.162S22.139 71.88 33.458 74.058C44.589 76.199 51.314 82.639 51.314 82.639S58.039 76.199 69.169 74.058C80.49 71.879 96.447 76.162 96.447 76.162V23.727C96.448 23.727 95.059 23.492 92.818 23.216M33.121 65.229C42.172 66.968 49.167 72.207 49.167 72.207V24.113S42.135 18.868 33.063 17.124C23.88 15.358 11.884 18.847 11.884 18.847V66.941S23.918 63.459 33.121 65.229M89.284 67.117V19.023S78.288 15.533 69.109 17.3C60.037 19.043 52.774 24.287 52.774 24.287V72.382S59.997 67.145 69.05 65.403C78.252 63.636 89.284 67.117 89.284 67.117" fill="#fb3453" data-fill-palette-color="accent"></path></g></g></svg></g></svg></g></svg></g></svg></g></svg></g></svg></g><defs></defs></svg><rect width="95.481" height="69.30423964116537" fill="none" stroke="none" visibility="hidden"></rect></g></svg></g></svg>